<mxfile host="app.diagrams.net" modified="2023-04-21T20:01:21.408Z" agent="Mozilla/5.0 (Windows NT 10.0; Win64; x64) AppleWebKit/537.36 (KHTML, like Gecko) Chrome/112.0.0.0 Safari/537.36" etag="VpJb1rAh6xVnLuJL4f5_" version="21.2.1" type="github">
  <diagram name="Page-1" id="0783ab3e-0a74-02c8-0abd-f7b4e66b4bec">
    <mxGraphModel dx="1750" dy="962" grid="1" gridSize="10" guides="1" tooltips="1" connect="1" arrows="1" fold="1" page="0" pageScale="1" pageWidth="850" pageHeight="1100" background="none" math="0" shadow="0">
      <root>
        <mxCell id="0" />
        <mxCell id="1" parent="0" />
        <mxCell id="1c1d494c118603dd-1" value="Pool" style="swimlane;html=1;childLayout=stackLayout;startSize=20;rounded=0;shadow=0;comic=0;labelBackgroundColor=none;strokeWidth=1;fontFamily=Verdana;fontSize=12;align=center;" parent="1" vertex="1">
          <mxGeometry x="40" y="20" width="1165" height="1870" as="geometry" />
        </mxCell>
        <mxCell id="1c1d494c118603dd-2" value="Пассажир" style="swimlane;html=1;startSize=20;" parent="1c1d494c118603dd-1" vertex="1">
          <mxGeometry y="20" width="325" height="1850" as="geometry" />
        </mxCell>
        <mxCell id="ROsPQiRXTR7bDxvJ-jqn-109" style="edgeStyle=orthogonalEdgeStyle;rounded=0;orthogonalLoop=1;jettySize=auto;html=1;exitX=0.5;exitY=1;exitDx=0;exitDy=0;entryX=0.5;entryY=0;entryDx=0;entryDy=0;" edge="1" parent="1c1d494c118603dd-2" source="ROsPQiRXTR7bDxvJ-jqn-39" target="ROsPQiRXTR7bDxvJ-jqn-68">
          <mxGeometry relative="1" as="geometry" />
        </mxCell>
        <mxCell id="ROsPQiRXTR7bDxvJ-jqn-39" value="Узнать время прибытия рейса" style="rounded=1;whiteSpace=wrap;html=1;shadow=0;comic=0;labelBackgroundColor=none;strokeWidth=1;fontFamily=Verdana;fontSize=12;align=center;arcSize=50;" vertex="1" parent="1c1d494c118603dd-2">
          <mxGeometry x="80" y="270" width="115" height="60" as="geometry" />
        </mxCell>
        <mxCell id="ROsPQiRXTR7bDxvJ-jqn-68" value="Прибыть на остановку" style="rounded=1;whiteSpace=wrap;html=1;shadow=0;comic=0;labelBackgroundColor=none;strokeWidth=1;fontFamily=Verdana;fontSize=12;align=center;arcSize=50;" vertex="1" parent="1c1d494c118603dd-2">
          <mxGeometry x="80" y="480" width="115" height="60" as="geometry" />
        </mxCell>
        <mxCell id="ROsPQiRXTR7bDxvJ-jqn-83" style="edgeStyle=orthogonalEdgeStyle;rounded=0;orthogonalLoop=1;jettySize=auto;html=1;exitX=0.5;exitY=1;exitDx=0;exitDy=0;entryX=0.5;entryY=0;entryDx=0;entryDy=0;" edge="1" parent="1c1d494c118603dd-2" source="ROsPQiRXTR7bDxvJ-jqn-74" target="ROsPQiRXTR7bDxvJ-jqn-75">
          <mxGeometry relative="1" as="geometry" />
        </mxCell>
        <mxCell id="ROsPQiRXTR7bDxvJ-jqn-74" value="Купить билет" style="rounded=1;whiteSpace=wrap;html=1;shadow=0;comic=0;labelBackgroundColor=none;strokeWidth=1;fontFamily=Verdana;fontSize=12;align=center;arcSize=50;" vertex="1" parent="1c1d494c118603dd-2">
          <mxGeometry x="100" y="770" width="115" height="60" as="geometry" />
        </mxCell>
        <mxCell id="ROsPQiRXTR7bDxvJ-jqn-75" value="Сесть в автобус" style="rounded=1;whiteSpace=wrap;html=1;shadow=0;comic=0;labelBackgroundColor=none;strokeWidth=1;fontFamily=Verdana;fontSize=12;align=center;arcSize=50;" vertex="1" parent="1c1d494c118603dd-2">
          <mxGeometry x="100" y="870" width="115" height="60" as="geometry" />
        </mxCell>
        <mxCell id="ROsPQiRXTR7bDxvJ-jqn-118" style="edgeStyle=orthogonalEdgeStyle;rounded=0;orthogonalLoop=1;jettySize=auto;html=1;exitX=0.5;exitY=1;exitDx=0;exitDy=0;entryX=0;entryY=0.5;entryDx=0;entryDy=0;" edge="1" parent="1c1d494c118603dd-2" source="ROsPQiRXTR7bDxvJ-jqn-111" target="ROsPQiRXTR7bDxvJ-jqn-115">
          <mxGeometry relative="1" as="geometry" />
        </mxCell>
        <mxCell id="ROsPQiRXTR7bDxvJ-jqn-120" value="есть желание оставить отзыв?" style="edgeLabel;html=1;align=center;verticalAlign=middle;resizable=0;points=[];" vertex="1" connectable="0" parent="ROsPQiRXTR7bDxvJ-jqn-118">
          <mxGeometry x="0.1516" relative="1" as="geometry">
            <mxPoint x="83" y="-3" as="offset" />
          </mxGeometry>
        </mxCell>
        <mxCell id="ROsPQiRXTR7bDxvJ-jqn-111" value="Выйти из автобуса" style="rounded=1;whiteSpace=wrap;html=1;shadow=0;comic=0;labelBackgroundColor=none;strokeWidth=1;fontFamily=Verdana;fontSize=12;align=center;arcSize=50;" vertex="1" parent="1c1d494c118603dd-2">
          <mxGeometry x="80" y="1300" width="115" height="60" as="geometry" />
        </mxCell>
        <mxCell id="ROsPQiRXTR7bDxvJ-jqn-112" value="Оставить отзыв" style="rounded=1;whiteSpace=wrap;html=1;shadow=0;comic=0;labelBackgroundColor=none;strokeWidth=1;fontFamily=Verdana;fontSize=12;align=center;arcSize=50;" vertex="1" parent="1c1d494c118603dd-2">
          <mxGeometry x="170" y="1440" width="115" height="60" as="geometry" />
        </mxCell>
        <mxCell id="ROsPQiRXTR7bDxvJ-jqn-119" style="edgeStyle=orthogonalEdgeStyle;rounded=0;orthogonalLoop=1;jettySize=auto;html=1;exitX=0.5;exitY=0;exitDx=0;exitDy=0;entryX=0.5;entryY=0;entryDx=0;entryDy=0;" edge="1" parent="1c1d494c118603dd-2" source="ROsPQiRXTR7bDxvJ-jqn-115" target="ROsPQiRXTR7bDxvJ-jqn-112">
          <mxGeometry relative="1" as="geometry">
            <Array as="points">
              <mxPoint x="228" y="1415" />
              <mxPoint x="228" y="1440" />
            </Array>
          </mxGeometry>
        </mxCell>
        <mxCell id="ROsPQiRXTR7bDxvJ-jqn-121" value="да" style="edgeLabel;html=1;align=center;verticalAlign=middle;resizable=0;points=[];" vertex="1" connectable="0" parent="ROsPQiRXTR7bDxvJ-jqn-119">
          <mxGeometry x="-0.2731" relative="1" as="geometry">
            <mxPoint x="-29" y="-15" as="offset" />
          </mxGeometry>
        </mxCell>
        <mxCell id="ROsPQiRXTR7bDxvJ-jqn-115" value="" style="rhombus;whiteSpace=wrap;html=1;direction=south;" vertex="1" parent="1c1d494c118603dd-2">
          <mxGeometry x="122.5" y="1400" width="30" height="30" as="geometry" />
        </mxCell>
        <mxCell id="ROsPQiRXTR7bDxvJ-jqn-123" style="edgeStyle=orthogonalEdgeStyle;rounded=0;orthogonalLoop=1;jettySize=auto;html=1;exitX=1;exitY=0.5;exitDx=0;exitDy=0;entryX=0;entryY=0.5;entryDx=0;entryDy=0;" edge="1" parent="1c1d494c118603dd-1" source="ROsPQiRXTR7bDxvJ-jqn-112" target="ROsPQiRXTR7bDxvJ-jqn-122">
          <mxGeometry relative="1" as="geometry" />
        </mxCell>
        <mxCell id="1c1d494c118603dd-3" value="Диспетчер" style="swimlane;html=1;startSize=20;" parent="1c1d494c118603dd-1" vertex="1">
          <mxGeometry x="325" y="20" width="380" height="1850" as="geometry" />
        </mxCell>
        <mxCell id="ROsPQiRXTR7bDxvJ-jqn-44" style="edgeStyle=orthogonalEdgeStyle;rounded=0;orthogonalLoop=1;jettySize=auto;html=1;exitX=0.5;exitY=1;exitDx=0;exitDy=0;entryX=0.5;entryY=0;entryDx=0;entryDy=0;" edge="1" parent="1c1d494c118603dd-3" source="60571a20871a0731-4" target="ROsPQiRXTR7bDxvJ-jqn-38">
          <mxGeometry relative="1" as="geometry" />
        </mxCell>
        <mxCell id="60571a20871a0731-4" value="" style="ellipse;whiteSpace=wrap;html=1;rounded=0;shadow=0;comic=0;labelBackgroundColor=none;strokeWidth=1;fillColor=#000000;fontFamily=Verdana;fontSize=12;align=center;" parent="1c1d494c118603dd-3" vertex="1">
          <mxGeometry x="160" y="40" width="40" height="40" as="geometry" />
        </mxCell>
        <mxCell id="ROsPQiRXTR7bDxvJ-jqn-45" style="edgeStyle=orthogonalEdgeStyle;rounded=0;orthogonalLoop=1;jettySize=auto;html=1;exitX=0.5;exitY=1;exitDx=0;exitDy=0;entryX=0.5;entryY=0;entryDx=0;entryDy=0;" edge="1" parent="1c1d494c118603dd-3" source="ROsPQiRXTR7bDxvJ-jqn-38" target="ROsPQiRXTR7bDxvJ-jqn-30">
          <mxGeometry relative="1" as="geometry" />
        </mxCell>
        <mxCell id="ROsPQiRXTR7bDxvJ-jqn-38" value="Добавить время прибытия/отбытия рейса" style="rounded=1;whiteSpace=wrap;html=1;shadow=0;comic=0;labelBackgroundColor=none;strokeWidth=1;fontFamily=Verdana;fontSize=12;align=center;arcSize=50;" vertex="1" parent="1c1d494c118603dd-3">
          <mxGeometry x="122.5" y="120" width="115" height="60" as="geometry" />
        </mxCell>
        <mxCell id="ROsPQiRXTR7bDxvJ-jqn-30" value="" style="whiteSpace=wrap;html=1;rounded=0;shadow=0;comic=0;labelBackgroundColor=none;strokeWidth=1;fillColor=#000000;fontFamily=Verdana;fontSize=12;align=center;rotation=0;" vertex="1" parent="1c1d494c118603dd-3">
          <mxGeometry x="106.5" y="210" width="147" height="10" as="geometry" />
        </mxCell>
        <mxCell id="ROsPQiRXTR7bDxvJ-jqn-81" style="edgeStyle=orthogonalEdgeStyle;rounded=0;orthogonalLoop=1;jettySize=auto;html=1;exitX=0.5;exitY=1;exitDx=0;exitDy=0;entryX=0.5;entryY=0;entryDx=0;entryDy=0;" edge="1" parent="1c1d494c118603dd-3" source="ROsPQiRXTR7bDxvJ-jqn-71" target="ROsPQiRXTR7bDxvJ-jqn-79">
          <mxGeometry relative="1" as="geometry" />
        </mxCell>
        <mxCell id="ROsPQiRXTR7bDxvJ-jqn-71" value="" style="whiteSpace=wrap;html=1;rounded=0;shadow=0;comic=0;labelBackgroundColor=none;strokeWidth=1;fillColor=#000000;fontFamily=Verdana;fontSize=12;align=center;rotation=0;" vertex="1" parent="1c1d494c118603dd-3">
          <mxGeometry x="106.5" y="630" width="147" height="10" as="geometry" />
        </mxCell>
        <mxCell id="ROsPQiRXTR7bDxvJ-jqn-79" value="Объвить начало посадки" style="rounded=1;whiteSpace=wrap;html=1;shadow=0;comic=0;labelBackgroundColor=none;strokeWidth=1;fontFamily=Verdana;fontSize=12;align=center;arcSize=50;" vertex="1" parent="1c1d494c118603dd-3">
          <mxGeometry x="122.5" y="670" width="115" height="60" as="geometry" />
        </mxCell>
        <mxCell id="ROsPQiRXTR7bDxvJ-jqn-108" style="edgeStyle=orthogonalEdgeStyle;rounded=0;orthogonalLoop=1;jettySize=auto;html=1;exitX=0.5;exitY=1;exitDx=0;exitDy=0;entryX=0.5;entryY=0;entryDx=0;entryDy=0;" edge="1" parent="1c1d494c118603dd-3" source="ROsPQiRXTR7bDxvJ-jqn-95" target="ROsPQiRXTR7bDxvJ-jqn-107">
          <mxGeometry relative="1" as="geometry" />
        </mxCell>
        <mxCell id="ROsPQiRXTR7bDxvJ-jqn-95" value="Объвить начало высадки" style="rounded=1;whiteSpace=wrap;html=1;shadow=0;comic=0;labelBackgroundColor=none;strokeWidth=1;fontFamily=Verdana;fontSize=12;align=center;arcSize=50;" vertex="1" parent="1c1d494c118603dd-3">
          <mxGeometry x="132.5" y="1055" width="115" height="60" as="geometry" />
        </mxCell>
        <mxCell id="ROsPQiRXTR7bDxvJ-jqn-107" value="" style="whiteSpace=wrap;html=1;rounded=0;shadow=0;comic=0;labelBackgroundColor=none;strokeWidth=1;fillColor=#000000;fontFamily=Verdana;fontSize=12;align=center;rotation=0;" vertex="1" parent="1c1d494c118603dd-3">
          <mxGeometry x="116.5" y="1160" width="147" height="10" as="geometry" />
        </mxCell>
        <mxCell id="ROsPQiRXTR7bDxvJ-jqn-137" style="edgeStyle=orthogonalEdgeStyle;rounded=0;orthogonalLoop=1;jettySize=auto;html=1;exitX=0.5;exitY=1;exitDx=0;exitDy=0;entryX=0.5;entryY=0;entryDx=0;entryDy=0;" edge="1" parent="1c1d494c118603dd-3" source="ROsPQiRXTR7bDxvJ-jqn-122" target="ROsPQiRXTR7bDxvJ-jqn-136">
          <mxGeometry relative="1" as="geometry" />
        </mxCell>
        <mxCell id="ROsPQiRXTR7bDxvJ-jqn-122" value="Обработать отзыв" style="rounded=1;whiteSpace=wrap;html=1;shadow=0;comic=0;labelBackgroundColor=none;strokeWidth=1;fontFamily=Verdana;fontSize=12;align=center;arcSize=50;" vertex="1" parent="1c1d494c118603dd-3">
          <mxGeometry x="132.5" y="1440" width="115" height="60" as="geometry" />
        </mxCell>
        <mxCell id="ROsPQiRXTR7bDxvJ-jqn-142" style="edgeStyle=orthogonalEdgeStyle;rounded=0;orthogonalLoop=1;jettySize=auto;html=1;exitX=0.5;exitY=1;exitDx=0;exitDy=0;entryX=0.5;entryY=0;entryDx=0;entryDy=0;" edge="1" parent="1c1d494c118603dd-3" source="ROsPQiRXTR7bDxvJ-jqn-136" target="ROsPQiRXTR7bDxvJ-jqn-141">
          <mxGeometry relative="1" as="geometry" />
        </mxCell>
        <mxCell id="ROsPQiRXTR7bDxvJ-jqn-136" value="" style="whiteSpace=wrap;html=1;rounded=0;shadow=0;comic=0;labelBackgroundColor=none;strokeWidth=1;fillColor=#000000;fontFamily=Verdana;fontSize=12;align=center;rotation=0;" vertex="1" parent="1c1d494c118603dd-3">
          <mxGeometry x="116.5" y="1580" width="147" height="10" as="geometry" />
        </mxCell>
        <mxCell id="ROsPQiRXTR7bDxvJ-jqn-144" style="edgeStyle=orthogonalEdgeStyle;rounded=0;orthogonalLoop=1;jettySize=auto;html=1;exitX=0.5;exitY=1;exitDx=0;exitDy=0;entryX=0.5;entryY=0;entryDx=0;entryDy=0;" edge="1" parent="1c1d494c118603dd-3" source="ROsPQiRXTR7bDxvJ-jqn-141" target="ROsPQiRXTR7bDxvJ-jqn-143">
          <mxGeometry relative="1" as="geometry" />
        </mxCell>
        <mxCell id="ROsPQiRXTR7bDxvJ-jqn-141" value="Изменить информацию о рейсе" style="rounded=1;whiteSpace=wrap;html=1;shadow=0;comic=0;labelBackgroundColor=none;strokeWidth=1;fontFamily=Verdana;fontSize=12;align=center;arcSize=50;" vertex="1" parent="1c1d494c118603dd-3">
          <mxGeometry x="132.5" y="1630" width="115" height="60" as="geometry" />
        </mxCell>
        <mxCell id="ROsPQiRXTR7bDxvJ-jqn-143" value="" style="ellipse;html=1;shape=endState;fillColor=strokeColor;rounded=1;" vertex="1" parent="1c1d494c118603dd-3">
          <mxGeometry x="170" y="1740" width="40" height="40" as="geometry" />
        </mxCell>
        <mxCell id="ROsPQiRXTR7bDxvJ-jqn-46" style="edgeStyle=orthogonalEdgeStyle;rounded=0;orthogonalLoop=1;jettySize=auto;html=1;exitX=0.25;exitY=1;exitDx=0;exitDy=0;entryX=0.5;entryY=0;entryDx=0;entryDy=0;" edge="1" parent="1c1d494c118603dd-1" source="ROsPQiRXTR7bDxvJ-jqn-30" target="ROsPQiRXTR7bDxvJ-jqn-39">
          <mxGeometry relative="1" as="geometry" />
        </mxCell>
        <mxCell id="ROsPQiRXTR7bDxvJ-jqn-47" style="edgeStyle=orthogonalEdgeStyle;rounded=0;orthogonalLoop=1;jettySize=auto;html=1;exitX=0.75;exitY=1;exitDx=0;exitDy=0;entryX=0.5;entryY=0;entryDx=0;entryDy=0;" edge="1" parent="1c1d494c118603dd-1" source="ROsPQiRXTR7bDxvJ-jqn-30" target="ROsPQiRXTR7bDxvJ-jqn-36">
          <mxGeometry relative="1" as="geometry" />
        </mxCell>
        <mxCell id="ROsPQiRXTR7bDxvJ-jqn-72" style="edgeStyle=orthogonalEdgeStyle;rounded=0;orthogonalLoop=1;jettySize=auto;html=1;exitX=0.5;exitY=1;exitDx=0;exitDy=0;entryX=0.25;entryY=0;entryDx=0;entryDy=0;" edge="1" parent="1c1d494c118603dd-1" source="ROsPQiRXTR7bDxvJ-jqn-68" target="ROsPQiRXTR7bDxvJ-jqn-71">
          <mxGeometry relative="1" as="geometry">
            <Array as="points">
              <mxPoint x="138" y="620" />
              <mxPoint x="468" y="620" />
            </Array>
          </mxGeometry>
        </mxCell>
        <mxCell id="ROsPQiRXTR7bDxvJ-jqn-73" style="edgeStyle=orthogonalEdgeStyle;rounded=0;orthogonalLoop=1;jettySize=auto;html=1;exitX=0.5;exitY=1;exitDx=0;exitDy=0;entryX=0.75;entryY=0;entryDx=0;entryDy=0;" edge="1" parent="1c1d494c118603dd-1" source="ROsPQiRXTR7bDxvJ-jqn-43" target="ROsPQiRXTR7bDxvJ-jqn-71">
          <mxGeometry relative="1" as="geometry" />
        </mxCell>
        <mxCell id="ROsPQiRXTR7bDxvJ-jqn-82" style="edgeStyle=orthogonalEdgeStyle;rounded=0;orthogonalLoop=1;jettySize=auto;html=1;exitX=0.5;exitY=1;exitDx=0;exitDy=0;entryX=0.5;entryY=0;entryDx=0;entryDy=0;" edge="1" parent="1c1d494c118603dd-1" source="ROsPQiRXTR7bDxvJ-jqn-79" target="ROsPQiRXTR7bDxvJ-jqn-74">
          <mxGeometry relative="1" as="geometry" />
        </mxCell>
        <mxCell id="ROsPQiRXTR7bDxvJ-jqn-85" style="edgeStyle=orthogonalEdgeStyle;rounded=0;orthogonalLoop=1;jettySize=auto;html=1;exitX=1;exitY=0.5;exitDx=0;exitDy=0;entryX=0;entryY=0.5;entryDx=0;entryDy=0;" edge="1" parent="1c1d494c118603dd-1" source="ROsPQiRXTR7bDxvJ-jqn-75" target="ROsPQiRXTR7bDxvJ-jqn-76">
          <mxGeometry relative="1" as="geometry" />
        </mxCell>
        <mxCell id="ROsPQiRXTR7bDxvJ-jqn-103" style="edgeStyle=orthogonalEdgeStyle;rounded=0;orthogonalLoop=1;jettySize=auto;html=1;exitX=0.5;exitY=1;exitDx=0;exitDy=0;entryX=1;entryY=0.5;entryDx=0;entryDy=0;" edge="1" parent="1c1d494c118603dd-1" source="ROsPQiRXTR7bDxvJ-jqn-97" target="ROsPQiRXTR7bDxvJ-jqn-95">
          <mxGeometry relative="1" as="geometry">
            <mxPoint x="590" y="1130" as="targetPoint" />
          </mxGeometry>
        </mxCell>
        <mxCell id="ROsPQiRXTR7bDxvJ-jqn-106" value="да" style="edgeLabel;html=1;align=center;verticalAlign=middle;resizable=0;points=[];" vertex="1" connectable="0" parent="ROsPQiRXTR7bDxvJ-jqn-103">
          <mxGeometry x="-0.712" y="-1" relative="1" as="geometry">
            <mxPoint x="28" y="-14" as="offset" />
          </mxGeometry>
        </mxCell>
        <mxCell id="ROsPQiRXTR7bDxvJ-jqn-113" style="edgeStyle=orthogonalEdgeStyle;rounded=0;orthogonalLoop=1;jettySize=auto;html=1;exitX=0.75;exitY=1;exitDx=0;exitDy=0;entryX=0.5;entryY=0;entryDx=0;entryDy=0;" edge="1" parent="1c1d494c118603dd-1" source="ROsPQiRXTR7bDxvJ-jqn-107" target="ROsPQiRXTR7bDxvJ-jqn-110">
          <mxGeometry relative="1" as="geometry">
            <Array as="points">
              <mxPoint x="552" y="1230" />
              <mxPoint x="903" y="1230" />
            </Array>
          </mxGeometry>
        </mxCell>
        <mxCell id="ROsPQiRXTR7bDxvJ-jqn-114" style="edgeStyle=orthogonalEdgeStyle;rounded=0;orthogonalLoop=1;jettySize=auto;html=1;exitX=0.25;exitY=1;exitDx=0;exitDy=0;entryX=0.5;entryY=0;entryDx=0;entryDy=0;" edge="1" parent="1c1d494c118603dd-1" source="ROsPQiRXTR7bDxvJ-jqn-107" target="ROsPQiRXTR7bDxvJ-jqn-111">
          <mxGeometry relative="1" as="geometry">
            <Array as="points">
              <mxPoint x="478" y="1230" />
              <mxPoint x="137" y="1230" />
            </Array>
          </mxGeometry>
        </mxCell>
        <mxCell id="1c1d494c118603dd-4" value="Водитель" style="swimlane;html=1;startSize=20;" parent="1c1d494c118603dd-1" vertex="1">
          <mxGeometry x="705" y="20" width="460" height="1850" as="geometry" />
        </mxCell>
        <mxCell id="ROsPQiRXTR7bDxvJ-jqn-49" style="edgeStyle=orthogonalEdgeStyle;rounded=0;orthogonalLoop=1;jettySize=auto;html=1;exitX=0.5;exitY=1;exitDx=0;exitDy=0;entryX=0;entryY=0.5;entryDx=0;entryDy=0;" edge="1" parent="1c1d494c118603dd-4" source="ROsPQiRXTR7bDxvJ-jqn-36" target="ROsPQiRXTR7bDxvJ-jqn-48">
          <mxGeometry relative="1" as="geometry" />
        </mxCell>
        <mxCell id="ROsPQiRXTR7bDxvJ-jqn-53" value="автобус&amp;nbsp; исправен?" style="edgeLabel;html=1;align=center;verticalAlign=middle;resizable=0;points=[];" vertex="1" connectable="0" parent="ROsPQiRXTR7bDxvJ-jqn-49">
          <mxGeometry x="-0.2067" y="-2" relative="1" as="geometry">
            <mxPoint as="offset" />
          </mxGeometry>
        </mxCell>
        <mxCell id="ROsPQiRXTR7bDxvJ-jqn-36" value="Узнать состояние автобуса" style="rounded=1;whiteSpace=wrap;html=1;shadow=0;comic=0;labelBackgroundColor=none;strokeWidth=1;fontFamily=Verdana;fontSize=12;align=center;arcSize=50;" vertex="1" parent="1c1d494c118603dd-4">
          <mxGeometry x="67.5" y="260" width="115" height="60" as="geometry" />
        </mxCell>
        <mxCell id="ROsPQiRXTR7bDxvJ-jqn-58" style="edgeStyle=orthogonalEdgeStyle;rounded=0;orthogonalLoop=1;jettySize=auto;html=1;exitX=0.5;exitY=0;exitDx=0;exitDy=0;entryX=1;entryY=0.5;entryDx=0;entryDy=0;" edge="1" parent="1c1d494c118603dd-4" source="ROsPQiRXTR7bDxvJ-jqn-42" target="ROsPQiRXTR7bDxvJ-jqn-36">
          <mxGeometry relative="1" as="geometry">
            <Array as="points">
              <mxPoint x="347" y="290" />
            </Array>
          </mxGeometry>
        </mxCell>
        <mxCell id="ROsPQiRXTR7bDxvJ-jqn-42" value="Ремонт" style="rounded=1;whiteSpace=wrap;html=1;shadow=0;comic=0;labelBackgroundColor=none;strokeWidth=1;fontFamily=Verdana;fontSize=12;align=center;arcSize=50;" vertex="1" parent="1c1d494c118603dd-4">
          <mxGeometry x="290" y="415" width="115" height="60" as="geometry" />
        </mxCell>
        <mxCell id="ROsPQiRXTR7bDxvJ-jqn-43" value="Прибыть на остановку" style="rounded=1;whiteSpace=wrap;html=1;shadow=0;comic=0;labelBackgroundColor=none;strokeWidth=1;fontFamily=Verdana;fontSize=12;align=center;arcSize=50;" vertex="1" parent="1c1d494c118603dd-4">
          <mxGeometry x="67.5" y="510" width="115" height="60" as="geometry" />
        </mxCell>
        <mxCell id="ROsPQiRXTR7bDxvJ-jqn-51" style="edgeStyle=orthogonalEdgeStyle;rounded=0;orthogonalLoop=1;jettySize=auto;html=1;exitX=0.5;exitY=0;exitDx=0;exitDy=0;entryX=0;entryY=0.5;entryDx=0;entryDy=0;" edge="1" parent="1c1d494c118603dd-4" source="ROsPQiRXTR7bDxvJ-jqn-48" target="ROsPQiRXTR7bDxvJ-jqn-42">
          <mxGeometry relative="1" as="geometry" />
        </mxCell>
        <mxCell id="ROsPQiRXTR7bDxvJ-jqn-54" value="нет" style="edgeLabel;html=1;align=center;verticalAlign=middle;resizable=0;points=[];" vertex="1" connectable="0" parent="ROsPQiRXTR7bDxvJ-jqn-51">
          <mxGeometry x="0.2333" y="2" relative="1" as="geometry">
            <mxPoint x="-6" y="-13" as="offset" />
          </mxGeometry>
        </mxCell>
        <mxCell id="ROsPQiRXTR7bDxvJ-jqn-59" style="edgeStyle=orthogonalEdgeStyle;rounded=0;orthogonalLoop=1;jettySize=auto;html=1;exitX=1;exitY=0.5;exitDx=0;exitDy=0;entryX=0.5;entryY=0;entryDx=0;entryDy=0;" edge="1" parent="1c1d494c118603dd-4" source="ROsPQiRXTR7bDxvJ-jqn-48" target="ROsPQiRXTR7bDxvJ-jqn-43">
          <mxGeometry relative="1" as="geometry" />
        </mxCell>
        <mxCell id="ROsPQiRXTR7bDxvJ-jqn-60" value="да" style="edgeLabel;html=1;align=center;verticalAlign=middle;resizable=0;points=[];" vertex="1" connectable="0" parent="ROsPQiRXTR7bDxvJ-jqn-59">
          <mxGeometry x="-0.36" y="-2" relative="1" as="geometry">
            <mxPoint x="-13" y="9" as="offset" />
          </mxGeometry>
        </mxCell>
        <mxCell id="ROsPQiRXTR7bDxvJ-jqn-48" value="" style="rhombus;whiteSpace=wrap;html=1;direction=south;" vertex="1" parent="1c1d494c118603dd-4">
          <mxGeometry x="110" y="430" width="30" height="30" as="geometry" />
        </mxCell>
        <mxCell id="ROsPQiRXTR7bDxvJ-jqn-76" value="Проверить билеты" style="rounded=1;whiteSpace=wrap;html=1;shadow=0;comic=0;labelBackgroundColor=none;strokeWidth=1;fontFamily=Verdana;fontSize=12;align=center;arcSize=50;" vertex="1" parent="1c1d494c118603dd-4">
          <mxGeometry x="140" y="770" width="115" height="60" as="geometry" />
        </mxCell>
        <mxCell id="ROsPQiRXTR7bDxvJ-jqn-98" style="edgeStyle=orthogonalEdgeStyle;rounded=0;orthogonalLoop=1;jettySize=auto;html=1;exitX=0.5;exitY=1;exitDx=0;exitDy=0;entryX=0;entryY=0.5;entryDx=0;entryDy=0;" edge="1" parent="1c1d494c118603dd-4" source="ROsPQiRXTR7bDxvJ-jqn-77" target="ROsPQiRXTR7bDxvJ-jqn-97">
          <mxGeometry relative="1" as="geometry" />
        </mxCell>
        <mxCell id="ROsPQiRXTR7bDxvJ-jqn-101" value="прибыли на конечную точку?" style="edgeLabel;html=1;align=center;verticalAlign=middle;resizable=0;points=[];" vertex="1" connectable="0" parent="ROsPQiRXTR7bDxvJ-jqn-98">
          <mxGeometry x="0.3224" relative="1" as="geometry">
            <mxPoint x="88" y="-2" as="offset" />
          </mxGeometry>
        </mxCell>
        <mxCell id="ROsPQiRXTR7bDxvJ-jqn-77" value="Отправиться в путь" style="rounded=1;whiteSpace=wrap;html=1;shadow=0;comic=0;labelBackgroundColor=none;strokeWidth=1;fontFamily=Verdana;fontSize=12;align=center;arcSize=50;" vertex="1" parent="1c1d494c118603dd-4">
          <mxGeometry x="140" y="970" width="115" height="60" as="geometry" />
        </mxCell>
        <mxCell id="ROsPQiRXTR7bDxvJ-jqn-90" style="edgeStyle=orthogonalEdgeStyle;rounded=0;orthogonalLoop=1;jettySize=auto;html=1;exitX=0.5;exitY=0;exitDx=0;exitDy=0;entryX=0;entryY=0.5;entryDx=0;entryDy=0;" edge="1" parent="1c1d494c118603dd-4" source="ROsPQiRXTR7bDxvJ-jqn-86" target="ROsPQiRXTR7bDxvJ-jqn-89">
          <mxGeometry relative="1" as="geometry" />
        </mxCell>
        <mxCell id="ROsPQiRXTR7bDxvJ-jqn-93" value="да" style="edgeLabel;html=1;align=center;verticalAlign=middle;resizable=0;points=[];" vertex="1" connectable="0" parent="ROsPQiRXTR7bDxvJ-jqn-90">
          <mxGeometry x="-0.2395" y="-1" relative="1" as="geometry">
            <mxPoint x="10" y="-16" as="offset" />
          </mxGeometry>
        </mxCell>
        <mxCell id="ROsPQiRXTR7bDxvJ-jqn-91" style="edgeStyle=orthogonalEdgeStyle;rounded=0;orthogonalLoop=1;jettySize=auto;html=1;exitX=1;exitY=0.5;exitDx=0;exitDy=0;" edge="1" parent="1c1d494c118603dd-4" source="ROsPQiRXTR7bDxvJ-jqn-86" target="ROsPQiRXTR7bDxvJ-jqn-77">
          <mxGeometry relative="1" as="geometry" />
        </mxCell>
        <mxCell id="ROsPQiRXTR7bDxvJ-jqn-94" value="нет" style="edgeLabel;html=1;align=center;verticalAlign=middle;resizable=0;points=[];" vertex="1" connectable="0" parent="ROsPQiRXTR7bDxvJ-jqn-91">
          <mxGeometry x="-0.768" y="1" relative="1" as="geometry">
            <mxPoint x="14" y="9" as="offset" />
          </mxGeometry>
        </mxCell>
        <mxCell id="ROsPQiRXTR7bDxvJ-jqn-86" value="" style="rhombus;whiteSpace=wrap;html=1;direction=south;" vertex="1" parent="1c1d494c118603dd-4">
          <mxGeometry x="182.5" y="910" width="30" height="30" as="geometry" />
        </mxCell>
        <mxCell id="ROsPQiRXTR7bDxvJ-jqn-87" style="edgeStyle=orthogonalEdgeStyle;rounded=0;orthogonalLoop=1;jettySize=auto;html=1;exitX=0.5;exitY=1;exitDx=0;exitDy=0;entryX=0;entryY=0.5;entryDx=0;entryDy=0;" edge="1" parent="1c1d494c118603dd-4" source="ROsPQiRXTR7bDxvJ-jqn-76" target="ROsPQiRXTR7bDxvJ-jqn-86">
          <mxGeometry relative="1" as="geometry">
            <Array as="points">
              <mxPoint x="198" y="870" />
              <mxPoint x="198" y="870" />
            </Array>
          </mxGeometry>
        </mxCell>
        <mxCell id="ROsPQiRXTR7bDxvJ-jqn-88" value="есть безбилетники?" style="edgeLabel;html=1;align=center;verticalAlign=middle;resizable=0;points=[];" vertex="1" connectable="0" parent="ROsPQiRXTR7bDxvJ-jqn-87">
          <mxGeometry x="0.2372" y="-1" relative="1" as="geometry">
            <mxPoint x="58" y="-10" as="offset" />
          </mxGeometry>
        </mxCell>
        <mxCell id="ROsPQiRXTR7bDxvJ-jqn-92" style="edgeStyle=orthogonalEdgeStyle;rounded=0;orthogonalLoop=1;jettySize=auto;html=1;entryX=1;entryY=0.5;entryDx=0;entryDy=0;exitX=0.5;exitY=0;exitDx=0;exitDy=0;" edge="1" parent="1c1d494c118603dd-4" source="ROsPQiRXTR7bDxvJ-jqn-89" target="ROsPQiRXTR7bDxvJ-jqn-76">
          <mxGeometry relative="1" as="geometry">
            <Array as="points">
              <mxPoint x="383" y="800" />
            </Array>
          </mxGeometry>
        </mxCell>
        <mxCell id="ROsPQiRXTR7bDxvJ-jqn-89" value="Высадка безбилетников" style="rounded=1;whiteSpace=wrap;html=1;shadow=0;comic=0;labelBackgroundColor=none;strokeWidth=1;fontFamily=Verdana;fontSize=12;align=center;arcSize=50;" vertex="1" parent="1c1d494c118603dd-4">
          <mxGeometry x="325" y="895" width="115" height="60" as="geometry" />
        </mxCell>
        <mxCell id="ROsPQiRXTR7bDxvJ-jqn-104" style="edgeStyle=orthogonalEdgeStyle;rounded=0;orthogonalLoop=1;jettySize=auto;html=1;exitX=1;exitY=0.5;exitDx=0;exitDy=0;entryX=0.5;entryY=0;entryDx=0;entryDy=0;" edge="1" parent="1c1d494c118603dd-4" source="ROsPQiRXTR7bDxvJ-jqn-96" target="ROsPQiRXTR7bDxvJ-jqn-97">
          <mxGeometry relative="1" as="geometry" />
        </mxCell>
        <mxCell id="ROsPQiRXTR7bDxvJ-jqn-96" value="Продолжать путь" style="rounded=1;whiteSpace=wrap;html=1;shadow=0;comic=0;labelBackgroundColor=none;strokeWidth=1;fontFamily=Verdana;fontSize=12;align=center;arcSize=50;" vertex="1" parent="1c1d494c118603dd-4">
          <mxGeometry x="140" y="1130" width="115" height="60" as="geometry" />
        </mxCell>
        <mxCell id="ROsPQiRXTR7bDxvJ-jqn-102" style="edgeStyle=orthogonalEdgeStyle;rounded=0;orthogonalLoop=1;jettySize=auto;html=1;exitX=1;exitY=0.5;exitDx=0;exitDy=0;entryX=0.5;entryY=0;entryDx=0;entryDy=0;" edge="1" parent="1c1d494c118603dd-4" source="ROsPQiRXTR7bDxvJ-jqn-97" target="ROsPQiRXTR7bDxvJ-jqn-96">
          <mxGeometry relative="1" as="geometry" />
        </mxCell>
        <mxCell id="ROsPQiRXTR7bDxvJ-jqn-105" value="нет" style="edgeLabel;html=1;align=center;verticalAlign=middle;resizable=0;points=[];" vertex="1" connectable="0" parent="ROsPQiRXTR7bDxvJ-jqn-102">
          <mxGeometry x="-0.2635" y="-1" relative="1" as="geometry">
            <mxPoint x="16" as="offset" />
          </mxGeometry>
        </mxCell>
        <mxCell id="ROsPQiRXTR7bDxvJ-jqn-97" value="" style="rhombus;whiteSpace=wrap;html=1;direction=south;" vertex="1" parent="1c1d494c118603dd-4">
          <mxGeometry x="182.5" y="1070" width="30" height="30" as="geometry" />
        </mxCell>
        <mxCell id="ROsPQiRXTR7bDxvJ-jqn-126" style="edgeStyle=orthogonalEdgeStyle;rounded=0;orthogonalLoop=1;jettySize=auto;html=1;exitX=0.5;exitY=1;exitDx=0;exitDy=0;entryX=0;entryY=0.5;entryDx=0;entryDy=0;" edge="1" parent="1c1d494c118603dd-4" source="ROsPQiRXTR7bDxvJ-jqn-110" target="ROsPQiRXTR7bDxvJ-jqn-127">
          <mxGeometry relative="1" as="geometry" />
        </mxCell>
        <mxCell id="ROsPQiRXTR7bDxvJ-jqn-130" value="пассажиры в автобусе есть?" style="edgeLabel;html=1;align=center;verticalAlign=middle;resizable=0;points=[];" vertex="1" connectable="0" parent="ROsPQiRXTR7bDxvJ-jqn-126">
          <mxGeometry x="0.2794" relative="1" as="geometry">
            <mxPoint x="78" y="-12" as="offset" />
          </mxGeometry>
        </mxCell>
        <mxCell id="ROsPQiRXTR7bDxvJ-jqn-110" value="Ожидать на стоянке" style="rounded=1;whiteSpace=wrap;html=1;shadow=0;comic=0;labelBackgroundColor=none;strokeWidth=1;fontFamily=Verdana;fontSize=12;align=center;arcSize=50;" vertex="1" parent="1c1d494c118603dd-4">
          <mxGeometry x="140" y="1240" width="115" height="60" as="geometry" />
        </mxCell>
        <mxCell id="ROsPQiRXTR7bDxvJ-jqn-124" value="Прибыть в депо" style="rounded=1;whiteSpace=wrap;html=1;shadow=0;comic=0;labelBackgroundColor=none;strokeWidth=1;fontFamily=Verdana;fontSize=12;align=center;arcSize=50;" vertex="1" parent="1c1d494c118603dd-4">
          <mxGeometry x="140" y="1440" width="115" height="60" as="geometry" />
        </mxCell>
        <mxCell id="ROsPQiRXTR7bDxvJ-jqn-128" style="edgeStyle=orthogonalEdgeStyle;rounded=0;orthogonalLoop=1;jettySize=auto;html=1;exitX=1;exitY=0.5;exitDx=0;exitDy=0;entryX=0.5;entryY=0;entryDx=0;entryDy=0;" edge="1" parent="1c1d494c118603dd-4" source="ROsPQiRXTR7bDxvJ-jqn-127" target="ROsPQiRXTR7bDxvJ-jqn-124">
          <mxGeometry relative="1" as="geometry" />
        </mxCell>
        <mxCell id="ROsPQiRXTR7bDxvJ-jqn-135" value="нет" style="edgeLabel;html=1;align=center;verticalAlign=middle;resizable=0;points=[];" vertex="1" connectable="0" parent="ROsPQiRXTR7bDxvJ-jqn-128">
          <mxGeometry x="-0.2344" y="-1" relative="1" as="geometry">
            <mxPoint x="16" y="-13" as="offset" />
          </mxGeometry>
        </mxCell>
        <mxCell id="ROsPQiRXTR7bDxvJ-jqn-132" style="edgeStyle=orthogonalEdgeStyle;rounded=0;orthogonalLoop=1;jettySize=auto;html=1;exitX=0.5;exitY=0;exitDx=0;exitDy=0;entryX=1;entryY=0.5;entryDx=0;entryDy=0;" edge="1" parent="1c1d494c118603dd-4" source="ROsPQiRXTR7bDxvJ-jqn-127" target="ROsPQiRXTR7bDxvJ-jqn-110">
          <mxGeometry relative="1" as="geometry">
            <Array as="points">
              <mxPoint x="365" y="1365" />
              <mxPoint x="365" y="1270" />
            </Array>
          </mxGeometry>
        </mxCell>
        <mxCell id="ROsPQiRXTR7bDxvJ-jqn-134" value="да" style="edgeLabel;html=1;align=center;verticalAlign=middle;resizable=0;points=[];" vertex="1" connectable="0" parent="ROsPQiRXTR7bDxvJ-jqn-132">
          <mxGeometry x="0.2" y="1" relative="1" as="geometry">
            <mxPoint x="-139" y="47" as="offset" />
          </mxGeometry>
        </mxCell>
        <mxCell id="ROsPQiRXTR7bDxvJ-jqn-127" value="" style="rhombus;whiteSpace=wrap;html=1;direction=south;" vertex="1" parent="1c1d494c118603dd-4">
          <mxGeometry x="182.5" y="1350" width="30" height="30" as="geometry" />
        </mxCell>
        <mxCell id="ROsPQiRXTR7bDxvJ-jqn-138" style="edgeStyle=orthogonalEdgeStyle;rounded=0;orthogonalLoop=1;jettySize=auto;html=1;exitX=0.5;exitY=1;exitDx=0;exitDy=0;entryX=0.75;entryY=0;entryDx=0;entryDy=0;" edge="1" parent="1c1d494c118603dd-1" source="ROsPQiRXTR7bDxvJ-jqn-124" target="ROsPQiRXTR7bDxvJ-jqn-136">
          <mxGeometry relative="1" as="geometry" />
        </mxCell>
        <mxCell id="ROsPQiRXTR7bDxvJ-jqn-139" style="edgeStyle=orthogonalEdgeStyle;rounded=0;orthogonalLoop=1;jettySize=auto;html=1;exitX=1;exitY=0.5;exitDx=0;exitDy=0;entryX=0.25;entryY=0;entryDx=0;entryDy=0;" edge="1" parent="1c1d494c118603dd-1" source="ROsPQiRXTR7bDxvJ-jqn-115" target="ROsPQiRXTR7bDxvJ-jqn-136">
          <mxGeometry relative="1" as="geometry">
            <Array as="points">
              <mxPoint x="137" y="1550" />
              <mxPoint x="478" y="1550" />
            </Array>
          </mxGeometry>
        </mxCell>
        <mxCell id="ROsPQiRXTR7bDxvJ-jqn-140" value="нет" style="edgeLabel;html=1;align=center;verticalAlign=middle;resizable=0;points=[];" vertex="1" connectable="0" parent="ROsPQiRXTR7bDxvJ-jqn-139">
          <mxGeometry x="-0.7385" relative="1" as="geometry">
            <mxPoint x="-15" as="offset" />
          </mxGeometry>
        </mxCell>
      </root>
    </mxGraphModel>
  </diagram>
</mxfile>
